<svg width="46" height="73" viewBox="0 0 46 73" fill="none" xmlns="http://www.w3.org/2000/svg">
<g opacity="0.85">
<path d="M10.2469 65.3077V64.2877L14.5219 60.1627C14.9019 59.8027 15.1819 59.4877 15.3619 59.2177C15.5519 58.9377 15.6769 58.6827 15.7369 58.4527C15.8069 58.2127 15.8419 57.9827 15.8419 57.7627C15.8419 57.2227 15.6519 56.7977 15.2719 56.4877C14.8919 56.1777 14.3369 56.0227 13.6069 56.0227C13.0469 56.0227 12.5419 56.1177 12.0919 56.3077C11.6419 56.4877 11.2519 56.7727 10.9219 57.1627L9.90189 56.2777C10.3019 55.7677 10.8369 55.3777 11.5069 55.1077C12.1869 54.8277 12.9319 54.6877 13.7419 54.6877C14.4719 54.6877 15.1069 54.8077 15.6469 55.0477C16.1869 55.2777 16.6019 55.6127 16.8919 56.0527C17.1919 56.4927 17.3419 57.0127 17.3419 57.6127C17.3419 57.9527 17.2969 58.2877 17.2069 58.6177C17.1169 58.9477 16.9469 59.2977 16.6969 59.6677C16.4469 60.0377 16.0869 60.4527 15.6169 60.9127L11.8069 64.5877L11.4469 64.0027H17.7919V65.3077H10.2469ZM20.8255 65.3077L25.2805 55.4377L25.6705 56.1127H19.4305L20.1805 55.3777V57.9877H18.7405V54.8077H26.6605V55.8277L22.4155 65.3077H20.8255ZM26.8439 62.7277V61.6777L32.2139 54.8077H33.8339L28.5089 61.6777L27.7439 61.4377H36.1289V62.7277H26.8439ZM32.6789 65.3077V62.7277L32.7239 61.4377V59.1577H34.1339V65.3077H32.6789Z" fill="white"/>
<path d="M46 19.4615C46 43.3462 10.6154 51.3077 23 38.9231C10.2975 38.9231 0 30.2098 0 19.4615C0 8.71323 10.2975 0 23 0C35.7025 0 46 8.71323 46 19.4615Z" fill="white"/>
<circle cx="12.3846" cy="19.4615" r="3.53846" fill="black"/>
<circle cx="23" cy="19.4615" r="3.53846" fill="black"/>
<circle cx="33.6154" cy="19.4615" r="3.53846" fill="black"/>
</g>
</svg>
