<svg width="26" height="40" viewBox="0 0 26 40" fill="none" xmlns="http://www.w3.org/2000/svg">
<path d="M5.0427 35.75H2.9787V35.334L3.6507 35.182V30.614L2.9787 30.454V30.038H5.0427V30.454L4.3707 30.614V35.182L5.0427 35.334V35.75ZM7.71363 31.382C8.22563 31.382 8.6123 31.5073 8.87363 31.758C9.13497 32.0033 9.26563 32.4033 9.26563 32.958V35.75H8.56963V33.006C8.56963 32.6593 8.4923 32.4007 8.33763 32.23C8.18297 32.0593 7.9403 31.974 7.60963 31.974C7.13497 31.974 6.80697 32.1073 6.62563 32.374C6.4443 32.6407 6.35363 33.0247 6.35363 33.526V35.75H5.64963V31.462H6.21763L6.32163 32.046H6.36163C6.45763 31.8967 6.57497 31.774 6.71363 31.678C6.85763 31.5767 7.01497 31.502 7.18563 31.454C7.3563 31.406 7.5323 31.382 7.71363 31.382ZM10.8989 31.15C10.8989 31.3313 10.8936 31.502 10.8829 31.662C10.8776 31.8167 10.8696 31.9393 10.8589 32.03H10.8989C11.0216 31.8487 11.1896 31.6967 11.4029 31.574C11.6163 31.4513 11.8909 31.39 12.2269 31.39C12.7603 31.39 13.1869 31.5767 13.5069 31.95C13.8323 32.318 13.9949 32.87 13.9949 33.606C13.9949 34.0967 13.9203 34.5073 13.7709 34.838C13.6269 35.1687 13.4216 35.4167 13.1549 35.582C12.8883 35.7473 12.5789 35.83 12.2269 35.83C11.8909 35.83 11.6163 35.7687 11.4029 35.646C11.1896 35.5233 11.0216 35.3767 10.8989 35.206H10.8429L10.6989 35.75H10.1949V29.67H10.8989V31.15ZM12.1069 31.974C11.8029 31.974 11.5629 32.0327 11.3869 32.15C11.2109 32.262 11.0856 32.438 11.0109 32.678C10.9363 32.9127 10.8989 33.214 10.8989 33.582V33.614C10.8989 34.142 10.9843 34.5473 11.1549 34.83C11.3309 35.1073 11.6536 35.246 12.1229 35.246C12.5069 35.246 12.7923 35.1047 12.9789 34.822C13.1709 34.5393 13.2669 34.1313 13.2669 33.598C13.2669 33.0593 13.1709 32.654 12.9789 32.382C12.7923 32.11 12.5016 31.974 12.1069 31.974ZM18.4448 33.598C18.4448 33.9553 18.3968 34.2727 18.3008 34.55C18.2102 34.822 18.0768 35.054 17.9008 35.246C17.7302 35.438 17.5195 35.5847 17.2688 35.686C17.0235 35.782 16.7488 35.83 16.4448 35.83C16.1622 35.83 15.9008 35.782 15.6608 35.686C15.4208 35.5847 15.2128 35.438 15.0368 35.246C14.8608 35.054 14.7222 34.822 14.6208 34.55C14.5248 34.2727 14.4768 33.9553 14.4768 33.598C14.4768 33.1233 14.5568 32.7233 14.7168 32.398C14.8768 32.0673 15.1062 31.8167 15.4048 31.646C15.7035 31.47 16.0582 31.382 16.4688 31.382C16.8582 31.382 17.1995 31.47 17.4928 31.646C17.7915 31.8167 18.0235 32.0673 18.1888 32.398C18.3595 32.7233 18.4448 33.1233 18.4448 33.598ZM15.2048 33.598C15.2048 33.934 15.2475 34.2273 15.3328 34.478C15.4235 34.7233 15.5622 34.9127 15.7488 35.046C15.9355 35.1793 16.1728 35.246 16.4608 35.246C16.7488 35.246 16.9862 35.1793 17.1728 35.046C17.3595 34.9127 17.4955 34.7233 17.5808 34.478C17.6715 34.2273 17.7168 33.934 17.7168 33.598C17.7168 33.2567 17.6715 32.966 17.5808 32.726C17.4902 32.486 17.3515 32.302 17.1648 32.174C16.9835 32.0407 16.7462 31.974 16.4528 31.974C16.0155 31.974 15.6982 32.118 15.5008 32.406C15.3035 32.694 15.2048 33.0913 15.2048 33.598ZM20.0203 33.558L18.5403 31.462H19.3403L20.4443 33.078L21.5403 31.462H22.3323L20.8523 33.558L22.4123 35.75H21.6123L20.4443 34.038L19.2603 35.75H18.4683L20.0203 33.558Z" fill="white"/>
<path d="M0 0H25.2174V20H16.3913L10.7174 28.125L7.56522 20H0V0Z" fill="white"/>
<path d="M1.26086 1.25H23.9565V18.699L15.1304 18.75L10.9065 25L8.82608 18.699H1.26086V1.25Z" fill="black"/>
<rect x="7.56522" y="8.75" width="10.087" height="2.5" fill="white"/>
</svg>
