<svg width="46" height="71" viewBox="0 0 46 71" fill="none" xmlns="http://www.w3.org/2000/svg">
<g opacity="0.85">
<path d="M5.73518 63.5385V62.5185L10.0102 58.3935C10.3902 58.0335 10.6702 57.7185 10.8502 57.4485C11.0402 57.1685 11.1652 56.9135 11.2252 56.6835C11.2952 56.4435 11.3302 56.2135 11.3302 55.9935C11.3302 55.4535 11.1402 55.0285 10.7602 54.7185C10.3802 54.4085 9.82518 54.2535 9.09518 54.2535C8.53518 54.2535 8.03018 54.3485 7.58018 54.5385C7.13018 54.7185 6.74018 55.0035 6.41018 55.3935L5.39018 54.5085C5.79018 53.9985 6.32518 53.6085 6.99518 53.3385C7.67518 53.0585 8.42018 52.9185 9.23018 52.9185C9.96018 52.9185 10.5952 53.0385 11.1352 53.2785C11.6752 53.5085 12.0902 53.8435 12.3802 54.2835C12.6802 54.7235 12.8302 55.2435 12.8302 55.8435C12.8302 56.1835 12.7852 56.5185 12.6952 56.8485C12.6052 57.1785 12.4352 57.5285 12.1852 57.8985C11.9352 58.2685 11.5752 58.6835 11.1052 59.1435L7.29518 62.8185L6.93518 62.2335H13.2802V63.5385H5.73518ZM17.7235 63.6585C16.9835 63.6585 16.2635 63.5435 15.5635 63.3135C14.8735 63.0835 14.3085 62.7735 13.8685 62.3835L14.5585 61.1985C14.9085 61.5285 15.3635 61.7985 15.9235 62.0085C16.4835 62.2185 17.0835 62.3235 17.7235 62.3235C18.5035 62.3235 19.1085 62.1585 19.5385 61.8285C19.9785 61.4885 20.1985 61.0335 20.1985 60.4635C20.1985 59.9135 19.9885 59.4735 19.5685 59.1435C19.1585 58.8035 18.5035 58.6335 17.6035 58.6335H16.7635V57.5835L19.8835 53.7435L20.0935 54.3435H14.3485V53.0385H21.2785V54.0585L18.1735 57.8835L17.3935 57.4185H17.8885C19.1585 57.4185 20.1085 57.7035 20.7385 58.2735C21.3785 58.8435 21.6985 59.5685 21.6985 60.4485C21.6985 61.0385 21.5535 61.5785 21.2635 62.0685C20.9735 62.5585 20.5335 62.9485 19.9435 63.2385C19.3635 63.5185 18.6235 63.6585 17.7235 63.6585ZM22.9474 60.9585V59.9085L28.3174 53.0385H29.9374L24.6124 59.9085L23.8474 59.6685H32.2324V60.9585H22.9474ZM28.7824 63.5385V60.9585L28.8274 59.6685V57.3885H30.2374V63.5385H28.7824ZM36.1658 63.6585C35.4258 63.6585 34.7058 63.5435 34.0058 63.3135C33.3158 63.0835 32.7508 62.7735 32.3108 62.3835L33.0008 61.1985C33.3508 61.5285 33.8058 61.7985 34.3658 62.0085C34.9258 62.2185 35.5258 62.3235 36.1658 62.3235C36.9458 62.3235 37.5508 62.1585 37.9808 61.8285C38.4208 61.4885 38.6408 61.0335 38.6408 60.4635C38.6408 59.9135 38.4308 59.4735 38.0108 59.1435C37.6008 58.8035 36.9458 58.6335 36.0458 58.6335H35.2058V57.5835L38.3258 53.7435L38.5358 54.3435H32.7908V53.0385H39.7208V54.0585L36.6158 57.8835L35.8358 57.4185H36.3308C37.6008 57.4185 38.5508 57.7035 39.1808 58.2735C39.8208 58.8435 40.1408 59.5685 40.1408 60.4485C40.1408 61.0385 39.9958 61.5785 39.7058 62.0685C39.4158 62.5585 38.9758 62.9485 38.3858 63.2385C37.8058 63.5185 37.0658 63.6585 36.1658 63.6585Z" fill="white"/>
<path d="M25.7059 13.9245C25.7059 21.6148 17.8513 27.849 11.5 27.849C5.41176 27.849 0 21.6148 0 13.9245C0 6.23421 5.14873 0 11.5 0C17.8513 0 25.7059 6.23421 25.7059 13.9245Z" fill="white"/>
<path d="M46 13.9245C46 21.6148 40.5883 27.849 34.5 27.849C28.1487 27.849 20.9706 21.6148 20.9706 13.9245C20.9706 6.23421 28.1487 0 34.5 0C40.8513 0 46 6.23421 46 13.9245Z" fill="white"/>
<path d="M23 44.2308L2.70583 22.9345L23 13.1054L43.2941 22.9345L23 44.2308Z" fill="white"/>
</g>
</svg>
