<svg width="175" height="42" viewBox="0 0 175 42" fill="none" xmlns="http://www.w3.org/2000/svg">
<path d="M77.5228 34V16.784H82.5148V34H77.5228ZM80.0188 14.384C79.1014 14.384 78.3548 14.1173 77.7788 13.584C77.2028 13.0507 76.9148 12.3893 76.9148 11.6C76.9148 10.8107 77.2028 10.1493 77.7788 9.616C78.3548 9.08267 79.1014 8.816 80.0188 8.816C80.9361 8.816 81.6828 9.072 82.2588 9.584C82.8348 10.0747 83.1228 10.7147 83.1228 11.504C83.1228 12.336 82.8348 13.0293 82.2588 13.584C81.7041 14.1173 80.9574 14.384 80.0188 14.384Z" fill="#DC3269"/>
<path d="M75.5228 32V14.784H80.5148V32H75.5228ZM78.0188 12.384C77.1014 12.384 76.3548 12.1173 75.7788 11.584C75.2028 11.0507 74.9148 10.3893 74.9148 9.6C74.9148 8.81067 75.2028 8.14933 75.7788 7.616C76.3548 7.08267 77.1014 6.816 78.0188 6.816C78.9361 6.816 79.6828 7.072 80.2588 7.584C80.8348 8.07467 81.1228 8.71467 81.1228 9.504C81.1228 10.336 80.8348 11.0293 80.2588 11.584C79.7041 12.1173 78.9574 12.384 78.0188 12.384Z" fill="#40CAE0"/>
<path d="M143.512 34.256C141.677 34.256 140.045 33.872 138.616 33.104C137.208 32.336 136.088 31.2907 135.256 29.968C134.445 28.624 134.04 27.0987 134.04 25.392C134.04 23.664 134.445 22.1387 135.256 20.816C136.088 19.472 137.208 18.4267 138.616 17.68C140.045 16.912 141.677 16.528 143.512 16.528C145.325 16.528 146.946 16.912 148.376 17.68C149.805 18.4267 150.925 19.4613 151.736 20.784C152.546 22.1067 152.952 23.6427 152.952 25.392C152.952 27.0987 152.546 28.624 151.736 29.968C150.925 31.2907 149.805 32.336 148.376 33.104C146.946 33.872 145.325 34.256 143.512 34.256ZM143.512 30.16C144.344 30.16 145.09 29.968 145.752 29.584C146.413 29.2 146.936 28.656 147.32 27.952C147.704 27.2267 147.896 26.3733 147.896 25.392C147.896 24.3893 147.704 23.536 147.32 22.832C146.936 22.128 146.413 21.584 145.752 21.2C145.09 20.816 144.344 20.624 143.512 20.624C142.68 20.624 141.933 20.816 141.272 21.2C140.61 21.584 140.077 22.128 139.672 22.832C139.288 23.536 139.096 24.3893 139.096 25.392C139.096 26.3733 139.288 27.2267 139.672 27.952C140.077 28.656 140.61 29.2 141.272 29.584C141.933 29.968 142.68 30.16 143.512 30.16Z" fill="#DC3269"/>
<path d="M142.512 32.256C140.677 32.256 139.045 31.872 137.616 31.104C136.208 30.336 135.088 29.2907 134.256 27.968C133.445 26.624 133.04 25.0987 133.04 23.392C133.04 21.664 133.445 20.1387 134.256 18.816C135.088 17.472 136.208 16.4267 137.616 15.68C139.045 14.912 140.677 14.528 142.512 14.528C144.325 14.528 145.946 14.912 147.376 15.68C148.805 16.4267 149.925 17.4613 150.736 18.784C151.546 20.1067 151.952 21.6427 151.952 23.392C151.952 25.0987 151.546 26.624 150.736 27.968C149.925 29.2907 148.805 30.336 147.376 31.104C145.946 31.872 144.325 32.256 142.512 32.256ZM142.512 28.16C143.344 28.16 144.09 27.968 144.752 27.584C145.413 27.2 145.936 26.656 146.32 25.952C146.704 25.2267 146.896 24.3733 146.896 23.392C146.896 22.3893 146.704 21.536 146.32 20.832C145.936 20.128 145.413 19.584 144.752 19.2C144.09 18.816 143.344 18.624 142.512 18.624C141.68 18.624 140.933 18.816 140.272 19.2C139.61 19.584 139.077 20.128 138.672 20.832C138.288 21.536 138.096 22.3893 138.096 23.392C138.096 24.3733 138.288 25.2267 138.672 25.952C139.077 26.656 139.61 27.2 140.272 27.584C140.933 27.968 141.68 28.16 142.512 28.16Z" fill="#40CAE0"/>
<path d="M61.5773 33V14.824H54.4093V10.6H73.9293V14.824H66.7613V33H61.5773ZM76.3665 33V15.784H81.3585V33H76.3665ZM78.8625 13.384C77.9452 13.384 77.1985 13.1173 76.6225 12.584C76.0465 12.0507 75.7585 11.3893 75.7585 10.6C75.7585 9.81067 76.0465 9.14933 76.6225 8.616C77.1985 8.08267 77.9452 7.816 78.8625 7.816C79.7798 7.816 80.5265 8.072 81.1025 8.584C81.6785 9.07467 81.9665 9.71467 81.9665 10.504C81.9665 11.336 81.6785 12.0293 81.1025 12.584C80.5478 13.1173 79.8012 13.384 78.8625 13.384ZM93.0315 33.256C91.0048 33.256 89.4262 32.744 88.2955 31.72C87.1648 30.6747 86.5995 29.128 86.5995 27.08V11.976H91.5915V27.016C91.5915 27.7413 91.7835 28.3067 92.1675 28.712C92.5515 29.096 93.0742 29.288 93.7355 29.288C94.5248 29.288 95.1968 29.0747 95.7515 28.648L97.0955 32.168C96.5835 32.5307 95.9648 32.808 95.2395 33C94.5355 33.1707 93.7995 33.256 93.0315 33.256ZM83.9435 20.008V16.168H95.8795V20.008H83.9435ZM105.69 33.256C104.218 33.256 102.799 33.0853 101.434 32.744C100.09 32.3813 99.0231 31.9333 98.2338 31.4L99.8978 27.816C100.687 28.3067 101.615 28.712 102.682 29.032C103.77 29.3307 104.836 29.48 105.882 29.48C107.034 29.48 107.844 29.3413 108.314 29.064C108.804 28.7867 109.05 28.4027 109.05 27.912C109.05 27.5067 108.858 27.208 108.474 27.016C108.111 26.8027 107.62 26.6427 107.002 26.536C106.383 26.4293 105.7 26.3227 104.954 26.216C104.228 26.1093 103.492 25.9707 102.746 25.8C101.999 25.608 101.316 25.3307 100.698 24.968C100.079 24.6053 99.5778 24.1147 99.1938 23.496C98.8311 22.8773 98.6497 22.0773 98.6497 21.096C98.6497 20.008 98.9591 19.048 99.5778 18.216C100.218 17.384 101.135 16.7333 102.33 16.264C103.524 15.7733 104.954 15.528 106.618 15.528C107.791 15.528 108.986 15.656 110.202 15.912C111.418 16.168 112.431 16.5413 113.242 17.032L111.578 20.584C110.746 20.0933 109.903 19.7627 109.05 19.592C108.218 19.4 107.407 19.304 106.618 19.304C105.508 19.304 104.698 19.4533 104.186 19.752C103.674 20.0507 103.418 20.4347 103.418 20.904C103.418 21.3307 103.599 21.6507 103.962 21.864C104.346 22.0773 104.847 22.248 105.466 22.376C106.084 22.504 106.756 22.6213 107.482 22.728C108.228 22.8133 108.975 22.952 109.722 23.144C110.468 23.336 111.14 23.6133 111.738 23.976C112.356 24.3173 112.858 24.7973 113.242 25.416C113.626 26.0133 113.818 26.8027 113.818 27.784C113.818 28.8507 113.498 29.8 112.858 30.632C112.218 31.4427 111.29 32.0827 110.074 32.552C108.879 33.0213 107.418 33.256 105.69 33.256ZM121.89 33V14.824H114.722V10.6H134.242V14.824H127.074V33H121.89ZM143.121 33.256C141.286 33.256 139.654 32.872 138.225 32.104C136.817 31.336 135.697 30.2907 134.865 28.968C134.054 27.624 133.649 26.0987 133.649 24.392C133.649 22.664 134.054 21.1387 134.865 19.816C135.697 18.472 136.817 17.4267 138.225 16.68C139.654 15.912 141.286 15.528 143.121 15.528C144.934 15.528 146.556 15.912 147.985 16.68C149.414 17.4267 150.534 18.4613 151.345 19.784C152.156 21.1067 152.561 22.6427 152.561 24.392C152.561 26.0987 152.156 27.624 151.345 28.968C150.534 30.2907 149.414 31.336 147.985 32.104C146.556 32.872 144.934 33.256 143.121 33.256ZM143.121 29.16C143.953 29.16 144.7 28.968 145.361 28.584C146.022 28.2 146.545 27.656 146.929 26.952C147.313 26.2267 147.505 25.3733 147.505 24.392C147.505 23.3893 147.313 22.536 146.929 21.832C146.545 21.128 146.022 20.584 145.361 20.2C144.7 19.816 143.953 19.624 143.121 19.624C142.289 19.624 141.542 19.816 140.881 20.2C140.22 20.584 139.686 21.128 139.281 21.832C138.897 22.536 138.705 23.3893 138.705 24.392C138.705 25.3733 138.897 26.2267 139.281 26.952C139.686 27.656 140.22 28.2 140.881 28.584C141.542 28.968 142.289 29.16 143.121 29.16ZM160.026 29.48L160.154 23.4L168.186 15.784H174.138L166.426 23.624L163.834 25.736L160.026 29.48ZM155.898 33V9.256H160.89V33H155.898ZM168.73 33L162.906 25.768L166.042 21.896L174.778 33H168.73Z" fill="white"/>
<circle cx="13.6296" cy="27.2593" r="2.37037" fill="#40CAE0"/>
<circle cx="12.4445" cy="27.2593" r="2.37037" fill="#DC3269"/>
<path d="M2.37036 0H6.51851V28.565L2.37036 26.0741V0Z" fill="#40CAE0"/>
<path d="M14.2222 14.2222C16.5663 14.2222 18.8577 14.9173 20.8067 16.2196C22.7558 17.5219 24.2749 19.3729 25.1719 21.5386C26.0689 23.7042 26.3036 26.0872 25.8463 28.3863C25.389 30.6853 24.2602 32.7971 22.6027 34.4546C20.9452 36.1121 18.8334 37.2409 16.5344 37.6982C14.2354 38.1555 11.8523 37.9208 9.68671 37.0238C7.52106 36.1267 5.67006 34.6076 4.36776 32.6586C3.06546 30.7096 2.37036 28.4182 2.37036 26.0741L6.49495 26.0741C6.49495 27.6024 6.94815 29.0964 7.79723 30.3671C8.64631 31.6379 9.85315 32.6283 11.2651 33.2131C12.6771 33.798 14.2308 33.951 15.7297 33.6529C17.2287 33.3547 18.6055 32.6188 19.6862 31.5381C20.7669 30.4574 21.5028 29.0805 21.801 27.5816C22.0992 26.0827 21.9461 24.529 21.3613 23.117C20.7764 21.705 19.786 20.4982 18.5152 19.6491C17.2445 18.8 15.7505 18.3468 14.2222 18.3468L14.2222 14.2222Z" fill="#40CAE0"/>
<path d="M0 2.37036H4.14815V30.9354L0 28.4444V2.37036Z" fill="#DC3269"/>
<path d="M11.8519 16.5926C14.1959 16.5926 16.4874 17.2877 18.4364 18.59C20.3854 19.8923 21.9045 21.7433 22.8015 23.9089C23.6986 26.0745 23.9333 28.4576 23.476 30.7566C23.0187 33.0556 21.8899 35.1674 20.2324 36.8249C18.5749 38.4824 16.4631 39.6112 14.164 40.0685C11.865 40.5258 9.48199 40.2911 7.31634 39.3941C5.1507 38.4971 3.2997 36.978 1.9974 35.0289C0.695099 33.0799 8.54263e-08 30.7885 1.41332e-07 28.4444L4.12459 28.4444C4.12459 29.9727 4.57779 31.4667 5.42687 32.7374C6.27595 34.0082 7.48278 34.9986 8.89476 35.5835C10.3067 36.1683 11.8604 36.3214 13.3594 36.0232C14.8583 35.725 16.2352 34.9891 17.3158 33.9084C18.3965 32.8277 19.1325 31.4509 19.4306 29.9519C19.7288 28.453 19.5758 26.8993 18.9909 25.4873C18.4061 24.0753 17.4156 22.8685 16.1449 22.0194C14.8741 21.1703 13.3802 20.7172 11.8519 20.7172L11.8519 16.5926Z" fill="#DC3269"/>
<path d="M1.18518 1.18518H5.33333V29.7502L1.18518 27.2593V1.18518Z" fill="white"/>
<path d="M13.037 15.4074C15.3811 15.4074 17.6725 16.1025 19.6216 17.4048C21.5706 18.7071 23.0897 20.5581 23.9867 22.7238C24.8838 24.8894 25.1185 27.2724 24.6612 29.5714C24.2038 31.8705 23.0751 33.9823 21.4176 35.6398C19.76 37.2973 17.6482 38.4261 15.3492 38.8834C13.0502 39.3407 10.6672 39.106 8.50152 38.2089C6.33588 37.3119 4.48488 35.7928 3.18258 33.8438C1.88028 31.8948 1.18518 29.6033 1.18518 27.2593L5.30977 27.2593C5.30977 28.7876 5.76297 30.2816 6.61205 31.5523C7.46113 32.823 8.66797 33.8135 10.0799 34.3983C11.4919 34.9832 13.0456 35.1362 14.5445 34.838C16.0435 34.5399 17.4204 33.8039 18.501 32.7233C19.5817 31.6426 20.3177 30.2657 20.6158 28.7668C20.914 27.2678 20.7609 25.7141 20.1761 24.3022C19.5912 22.8902 18.6008 21.6834 17.3301 20.8343C16.0593 19.9852 14.5653 19.532 13.037 19.532L13.037 15.4074Z" fill="white"/>
<circle cx="13.037" cy="27.2593" r="2.37037" fill="white"/>
<circle cx="2.37037" cy="2.37037" r="2.37037" transform="matrix(-1 0 0 1 36.7407 24.8889)" fill="#40CAE0"/>
<circle cx="2.37037" cy="2.37037" r="2.37037" transform="matrix(-1 0 0 1 37.9259 24.8889)" fill="#DC3269"/>
<path d="M45.6296 0H41.4815V28.565L45.6296 26.0741V0Z" fill="#40CAE0"/>
<path d="M33.7778 14.2222C31.4337 14.2222 29.1423 14.9173 27.1933 16.2196C25.2442 17.5219 23.7251 19.3729 22.8281 21.5386C21.9311 23.7042 21.6964 26.0872 22.1537 28.3863C22.611 30.6853 23.7398 32.7971 25.3973 34.4546C27.0548 36.1121 29.1666 37.2409 31.4656 37.6982C33.7646 38.1555 36.1477 37.9208 38.3133 37.0238C40.4789 36.1267 42.3299 34.6076 43.6322 32.6586C44.9345 30.7096 45.6296 28.4182 45.6296 26.0741L41.505 26.0741C41.505 27.6024 41.0519 29.0964 40.2028 30.3671C39.3537 31.6379 38.1469 32.6283 36.7349 33.2131C35.3229 33.798 33.7692 33.951 32.2703 33.6529C30.7713 33.3547 29.3945 32.6188 28.3138 31.5381C27.2331 30.4574 26.4972 29.0805 26.199 27.5816C25.9008 26.0827 26.0539 24.529 26.6387 23.117C27.2236 21.705 28.214 20.4982 29.4848 19.6491C30.7555 18.8 32.2495 18.3468 33.7778 18.3468L33.7778 14.2222Z" fill="#40CAE0"/>
<path d="M48 2.37036H43.8519V30.9354L48 28.4444V2.37036Z" fill="#DC3269"/>
<path d="M36.1481 16.5926C33.8041 16.5926 31.5126 17.2877 29.5636 18.59C27.6146 19.8923 26.0955 21.7433 25.1985 23.9089C24.3014 26.0745 24.0667 28.4576 24.524 30.7566C24.9813 33.0556 26.1101 35.1674 27.7676 36.8249C29.4251 38.4824 31.5369 39.6112 33.836 40.0685C36.135 40.5258 38.518 40.2911 40.6837 39.3941C42.8493 38.4971 44.7003 36.978 46.0026 35.0289C47.3049 33.0799 48 30.7885 48 28.4444L43.8754 28.4444C43.8754 29.9727 43.4222 31.4667 42.5731 32.7374C41.724 34.0082 40.5172 34.9986 39.1052 35.5835C37.6933 36.1683 36.1396 36.3214 34.6406 36.0232C33.1417 35.725 31.7648 34.9891 30.6842 33.9084C29.6035 32.8277 28.8675 31.4509 28.5694 29.9519C28.2712 28.453 28.4242 26.8993 29.0091 25.4873C29.5939 24.0753 30.5844 22.8685 31.8551 22.0194C33.1259 21.1703 34.6198 20.7172 36.1481 20.7172L36.1481 16.5926Z" fill="#DC3269"/>
<path d="M46.8148 1.18518H42.6667V29.7502L46.8148 27.2593V1.18518Z" fill="white"/>
<path d="M34.963 15.4074C32.6189 15.4074 30.3275 16.1025 28.3784 17.4048C26.4294 18.7071 24.9103 20.5581 24.0133 22.7238C23.1162 24.8894 22.8815 27.2724 23.3388 29.5714C23.7962 31.8705 24.9249 33.9823 26.5824 35.6398C28.24 37.2973 30.3518 38.4261 32.6508 38.8834C34.9498 39.3407 37.3328 39.106 39.4985 38.2089C41.6641 37.3119 43.5151 35.7928 44.8174 33.8438C46.1197 31.8948 46.8148 29.6033 46.8148 27.2593L42.6902 27.2593C42.6902 28.7876 42.237 30.2816 41.3879 31.5523C40.5389 32.823 39.332 33.8135 37.9201 34.3983C36.5081 34.9832 34.9544 35.1362 33.4555 34.838C31.9565 34.5399 30.5796 33.8039 29.499 32.7233C28.4183 31.6426 27.6823 30.2657 27.3842 28.7668C27.086 27.2678 27.2391 25.7141 27.8239 24.3022C28.4088 22.8902 29.3992 21.6834 30.6699 20.8343C31.9407 19.9852 33.4347 19.532 34.963 19.532L34.963 15.4074Z" fill="white"/>
<circle cx="2.37037" cy="2.37037" r="2.37037" transform="matrix(-1 0 0 1 37.3334 24.8889)" fill="white"/>
</svg>
