<svg width="33" height="40" viewBox="0 0 33 40" fill="none" xmlns="http://www.w3.org/2000/svg">
<path d="M6.19324 12.5H26.1932L26.2501 24.375H17.5569L17.5001 18.75H14.9432L15.0001 24.375H6.25008L6.19324 12.5Z" fill="white"/>
<path d="M16.25 0L30.3229 13.125H2.17709L16.25 0Z" fill="white"/>
<path d="M10.771 35.75L8.891 30.742H8.859C8.86967 30.8487 8.87767 30.9847 8.883 31.15C8.89367 31.3153 8.90167 31.4967 8.907 31.694C8.91233 31.886 8.915 32.0833 8.915 32.286V35.75H8.251V30.038H9.315L11.075 34.718H11.107L12.899 30.038H13.955V35.75H13.243V32.238C13.243 32.0513 13.2457 31.8673 13.251 31.686C13.2563 31.4993 13.2643 31.326 13.275 31.166C13.2857 31.0007 13.2937 30.862 13.299 30.75H13.267L11.363 35.75H10.771ZM16.6368 31.39C17.1595 31.39 17.5461 31.5047 17.7968 31.734C18.0475 31.9633 18.1728 32.3287 18.1728 32.83V35.75H17.6608L17.5248 35.142H17.4928C17.3701 35.2967 17.2421 35.4273 17.1088 35.534C16.9808 35.6353 16.8315 35.71 16.6608 35.758C16.4955 35.806 16.2928 35.83 16.0528 35.83C15.7968 35.83 15.5648 35.7847 15.3568 35.694C15.1541 35.6033 14.9941 35.4647 14.8768 35.278C14.7595 35.086 14.7008 34.846 14.7008 34.558C14.7008 34.1313 14.8688 33.8033 15.2048 33.574C15.5408 33.3393 16.0581 33.2113 16.7568 33.19L17.4848 33.166V32.91C17.4848 32.5527 17.4075 32.3047 17.2528 32.166C17.0981 32.0273 16.8795 31.958 16.5968 31.958C16.3728 31.958 16.1595 31.9927 15.9568 32.062C15.7541 32.126 15.5648 32.2007 15.3888 32.286L15.1728 31.758C15.3595 31.6567 15.5808 31.5713 15.8368 31.502C16.0928 31.4273 16.3595 31.39 16.6368 31.39ZM16.8448 33.678C16.3115 33.6993 15.9408 33.7847 15.7328 33.934C15.5301 34.0833 15.4288 34.294 15.4288 34.566C15.4288 34.806 15.5008 34.982 15.6448 35.094C15.7941 35.206 15.9835 35.262 16.2128 35.262C16.5755 35.262 16.8768 35.1633 17.1168 34.966C17.3568 34.7633 17.4768 34.454 17.4768 34.038V33.654L16.8448 33.678ZM19.8012 31.462V35.75H19.0972V31.462H19.8012ZM19.4572 29.854C19.5639 29.854 19.6572 29.8913 19.7372 29.966C19.8225 30.0353 19.8652 30.1473 19.8652 30.302C19.8652 30.4513 19.8225 30.5633 19.7372 30.638C19.6572 30.7127 19.5639 30.75 19.4572 30.75C19.3399 30.75 19.2412 30.7127 19.1612 30.638C19.0812 30.5633 19.0412 30.4513 19.0412 30.302C19.0412 30.1473 19.0812 30.0353 19.1612 29.966C19.2412 29.8913 19.3399 29.854 19.4572 29.854ZM22.8237 31.382C23.3357 31.382 23.7224 31.5073 23.9837 31.758C24.245 32.0033 24.3757 32.4033 24.3757 32.958V35.75H23.6797V33.006C23.6797 32.6593 23.6024 32.4007 23.4477 32.23C23.293 32.0593 23.0504 31.974 22.7197 31.974C22.245 31.974 21.917 32.1073 21.7357 32.374C21.5544 32.6407 21.4637 33.0247 21.4637 33.526V35.75H20.7597V31.462H21.3277L21.4317 32.046H21.4717C21.5677 31.8967 21.685 31.774 21.8237 31.678C21.9677 31.5767 22.125 31.502 22.2957 31.454C22.4664 31.406 22.6424 31.382 22.8237 31.382Z" fill="white"/>
</svg>
