<svg width="29" height="40" viewBox="0 0 29 40" fill="none" xmlns="http://www.w3.org/2000/svg">
<path d="M5.54972 30.038C6.29639 30.038 6.84039 30.1847 7.18172 30.478C7.52305 30.7713 7.69372 31.1847 7.69372 31.718C7.69372 31.9527 7.65372 32.1793 7.57372 32.398C7.49905 32.6113 7.37372 32.8033 7.19772 32.974C7.02172 33.1447 6.78705 33.2807 6.49372 33.382C6.20039 33.478 5.84039 33.526 5.41372 33.526H4.75772V35.75H4.03772V30.038H5.54972ZM5.48572 30.654H4.75772V32.91H5.33372C5.69639 32.91 5.99772 32.8727 6.23772 32.798C6.47772 32.718 6.65639 32.5927 6.77372 32.422C6.89105 32.2513 6.94972 32.0273 6.94972 31.75C6.94972 31.382 6.83239 31.1073 6.59772 30.926C6.36305 30.7447 5.99239 30.654 5.48572 30.654ZM10.3855 31.382C10.4655 31.382 10.5508 31.3873 10.6415 31.398C10.7375 31.4033 10.8201 31.414 10.8895 31.43L10.8015 32.078C10.7321 32.062 10.6548 32.0487 10.5695 32.038C10.4895 32.0273 10.4121 32.022 10.3375 32.022C10.1721 32.022 10.0148 32.0567 9.86547 32.126C9.71614 32.1953 9.5828 32.294 9.46547 32.422C9.34814 32.5447 9.2548 32.694 9.18547 32.87C9.12147 33.046 9.08947 33.2433 9.08947 33.462V35.75H8.38547V31.462H8.96147L9.04147 32.246H9.07347C9.16414 32.086 9.27347 31.942 9.40147 31.814C9.52947 31.6807 9.67614 31.5767 9.84147 31.502C10.0068 31.422 10.1881 31.382 10.3855 31.382ZM14.8619 33.598C14.8619 33.9553 14.8139 34.2727 14.7179 34.55C14.6272 34.822 14.4939 35.054 14.3179 35.246C14.1472 35.438 13.9366 35.5847 13.6859 35.686C13.4406 35.782 13.1659 35.83 12.8619 35.83C12.5792 35.83 12.3179 35.782 12.0779 35.686C11.8379 35.5847 11.6299 35.438 11.4539 35.246C11.2779 35.054 11.1392 34.822 11.0379 34.55C10.9419 34.2727 10.8939 33.9553 10.8939 33.598C10.8939 33.1233 10.9739 32.7233 11.1339 32.398C11.2939 32.0673 11.5232 31.8167 11.8219 31.646C12.1206 31.47 12.4752 31.382 12.8859 31.382C13.2752 31.382 13.6166 31.47 13.9099 31.646C14.2086 31.8167 14.4406 32.0673 14.6059 32.398C14.7766 32.7233 14.8619 33.1233 14.8619 33.598ZM11.6219 33.598C11.6219 33.934 11.6646 34.2273 11.7499 34.478C11.8406 34.7233 11.9792 34.9127 12.1659 35.046C12.3526 35.1793 12.5899 35.246 12.8779 35.246C13.1659 35.246 13.4032 35.1793 13.5899 35.046C13.7766 34.9127 13.9126 34.7233 13.9979 34.478C14.0886 34.2273 14.1339 33.934 14.1339 33.598C14.1339 33.2567 14.0886 32.966 13.9979 32.726C13.9072 32.486 13.7686 32.302 13.5819 32.174C13.4006 32.0407 13.1632 31.974 12.8699 31.974C12.4326 31.974 12.1152 32.118 11.9179 32.406C11.7206 32.694 11.6219 33.0913 11.6219 33.598ZM17.5537 32.006H16.4737V35.75H15.7697V32.006H15.0177V31.678L15.7697 31.438V31.19C15.7697 30.822 15.823 30.5233 15.9297 30.294C16.0417 30.0647 16.2017 29.8967 16.4097 29.79C16.6177 29.6833 16.8683 29.63 17.1617 29.63C17.3323 29.63 17.487 29.646 17.6257 29.678C17.7697 29.7047 17.8923 29.7367 17.9937 29.774L17.8097 30.326C17.7243 30.2993 17.6257 30.2727 17.5137 30.246C17.4017 30.2193 17.287 30.206 17.1697 30.206C16.935 30.206 16.759 30.286 16.6417 30.446C16.5297 30.6007 16.4737 30.846 16.4737 31.182V31.462H17.5537V32.006ZM19.0337 31.462V35.75H18.3297V31.462H19.0337ZM18.6897 29.854C18.7963 29.854 18.8897 29.8913 18.9697 29.966C19.055 30.0353 19.0977 30.1473 19.0977 30.302C19.0977 30.4513 19.055 30.5633 18.9697 30.638C18.8897 30.7127 18.7963 30.75 18.6897 30.75C18.5723 30.75 18.4737 30.7127 18.3937 30.638C18.3137 30.5633 18.2737 30.4513 18.2737 30.302C18.2737 30.1473 18.3137 30.0353 18.3937 29.966C18.4737 29.8913 18.5723 29.854 18.6897 29.854ZM20.6942 35.75H19.9902V29.67H20.6942V35.75ZM23.3087 31.382C23.6767 31.382 23.9913 31.462 24.2527 31.622C24.5193 31.782 24.722 32.0087 24.8607 32.302C25.0047 32.59 25.0767 32.9287 25.0767 33.318V33.742H22.1407C22.1513 34.2273 22.274 34.598 22.5087 34.854C22.7487 35.1047 23.082 35.23 23.5087 35.23C23.7807 35.23 24.0207 35.206 24.2287 35.158C24.442 35.1047 24.6607 35.03 24.8847 34.934V35.55C24.666 35.646 24.45 35.7153 24.2367 35.758C24.0233 35.806 23.77 35.83 23.4767 35.83C23.0713 35.83 22.7113 35.7473 22.3967 35.582C22.0873 35.4167 21.8447 35.1713 21.6687 34.846C21.498 34.5153 21.4127 34.1127 21.4127 33.638C21.4127 33.1687 21.49 32.766 21.6447 32.43C21.8047 32.094 22.026 31.8353 22.3087 31.654C22.5967 31.4727 22.93 31.382 23.3087 31.382ZM23.3007 31.958C22.9647 31.958 22.698 32.0673 22.5007 32.286C22.3087 32.4993 22.194 32.798 22.1567 33.182H24.3407C24.3407 32.9367 24.3033 32.7233 24.2287 32.542C24.154 32.3607 24.0393 32.2193 23.8847 32.118C23.7353 32.0113 23.5407 31.958 23.3007 31.958Z" fill="white"/>
<circle cx="15" cy="6.25" r="6.25" fill="white"/>
<circle cx="15" cy="6.25" r="5" fill="black"/>
<path d="M26.25 22.5C26.25 21.3509 25.959 20.2131 25.3936 19.1515C24.8283 18.0899 23.9996 17.1253 22.955 16.3128C21.9103 15.5003 20.6701 14.8558 19.3052 14.4161C17.9403 13.9763 16.4774 13.75 15 13.75C13.5226 13.75 12.0597 13.9763 10.6948 14.4161C9.3299 14.8558 8.08971 15.5003 7.04505 16.3128C6.00039 17.1253 5.17172 18.0899 4.60635 19.1515C4.04099 20.2131 3.75 21.3509 3.75 22.5L15 22.5H26.25Z" fill="white"/>
<path d="M25 22.5C25 20.5109 23.9464 18.6032 22.0711 17.1967C20.1957 15.7902 17.6522 15 15 15C12.3478 15 9.8043 15.7902 7.92893 17.1967C6.05357 18.6032 5 20.5109 5 22.5L15 22.5H25Z" fill="black"/>
</svg>
