<svg width="30" height="40" viewBox="0 0 30 40" fill="none" xmlns="http://www.w3.org/2000/svg">
<path d="M5.88088 35.75H5.16088V30.67H3.37688V30.038H7.65688V30.67H5.88088V35.75ZM9.62375 31.382C9.70375 31.382 9.78908 31.3873 9.87975 31.398C9.97575 31.4033 10.0584 31.414 10.1278 31.43L10.0398 32.078C9.97042 32.062 9.89308 32.0487 9.80775 32.038C9.72775 32.0273 9.65042 32.022 9.57575 32.022C9.41042 32.022 9.25308 32.0567 9.10375 32.126C8.95442 32.1953 8.82108 32.294 8.70375 32.422C8.58642 32.5447 8.49308 32.694 8.42375 32.87C8.35975 33.046 8.32775 33.2433 8.32775 33.462V35.75H7.62375V31.462H8.19975L8.27975 32.246H8.31175C8.40242 32.086 8.51175 31.942 8.63975 31.814C8.76775 31.6807 8.91442 31.5767 9.07975 31.502C9.24508 31.422 9.42642 31.382 9.62375 31.382ZM12.0282 31.382C12.3962 31.382 12.7109 31.462 12.9722 31.622C13.2389 31.782 13.4415 32.0087 13.5802 32.302C13.7242 32.59 13.7962 32.9287 13.7962 33.318V33.742H10.8602C10.8709 34.2273 10.9935 34.598 11.2282 34.854C11.4682 35.1047 11.8015 35.23 12.2282 35.23C12.5002 35.23 12.7402 35.206 12.9482 35.158C13.1615 35.1047 13.3802 35.03 13.6042 34.934V35.55C13.3855 35.646 13.1695 35.7153 12.9562 35.758C12.7429 35.806 12.4895 35.83 12.1962 35.83C11.7909 35.83 11.4309 35.7473 11.1162 35.582C10.8069 35.4167 10.5642 35.1713 10.3882 34.846C10.2175 34.5153 10.1322 34.1127 10.1322 33.638C10.1322 33.1687 10.2095 32.766 10.3642 32.43C10.5242 32.094 10.7455 31.8353 11.0282 31.654C11.3162 31.4727 11.6495 31.382 12.0282 31.382ZM12.0202 31.958C11.6842 31.958 11.4175 32.0673 11.2202 32.286C11.0282 32.4993 10.9135 32.798 10.8762 33.182H13.0602C13.0602 32.9367 13.0229 32.7233 12.9482 32.542C12.8735 32.3607 12.7589 32.2193 12.6042 32.118C12.4549 32.0113 12.2602 31.958 12.0202 31.958ZM16.5518 31.382C17.0638 31.382 17.4505 31.5073 17.7118 31.758C17.9731 32.0033 18.1038 32.4033 18.1038 32.958V35.75H17.4078V33.006C17.4078 32.6593 17.3305 32.4007 17.1758 32.23C17.0211 32.0593 16.7785 31.974 16.4478 31.974C15.9731 31.974 15.6451 32.1073 15.4638 32.374C15.2825 32.6407 15.1918 33.0247 15.1918 33.526V35.75H14.4878V31.462H15.0558L15.1598 32.046H15.1998C15.2958 31.8967 15.4131 31.774 15.5518 31.678C15.6958 31.5767 15.8531 31.502 16.0238 31.454C16.1945 31.406 16.3705 31.382 16.5518 31.382ZM20.5531 35.83C20.0198 35.83 19.5931 35.646 19.2731 35.278C18.9531 34.9047 18.7931 34.35 18.7931 33.614C18.7931 32.878 18.9531 32.3233 19.2731 31.95C19.5985 31.5713 20.0278 31.382 20.5611 31.382C20.7851 31.382 20.9798 31.4113 21.1451 31.47C21.3105 31.5233 21.4545 31.598 21.5771 31.694C21.6998 31.79 21.8038 31.8967 21.8891 32.014H21.9371C21.9318 31.9447 21.9211 31.8433 21.9051 31.71C21.8945 31.5713 21.8891 31.462 21.8891 31.382V29.67H22.5931V35.75H22.0251L21.9211 35.174H21.8891C21.8038 35.2967 21.6998 35.4087 21.5771 35.51C21.4545 35.606 21.3078 35.6833 21.1371 35.742C20.9718 35.8007 20.7771 35.83 20.5531 35.83ZM20.6651 35.246C21.1185 35.246 21.4358 35.1233 21.6171 34.878C21.8038 34.6273 21.8971 34.2513 21.8971 33.75V33.622C21.8971 33.0887 21.8091 32.6807 21.6331 32.398C21.4571 32.11 21.1318 31.966 20.6571 31.966C20.2785 31.966 19.9931 32.118 19.8011 32.422C19.6145 32.7207 19.5211 33.1233 19.5211 33.63C19.5211 34.142 19.6145 34.5393 19.8011 34.822C19.9931 35.1047 20.2811 35.246 20.6651 35.246ZM26.347 34.566C26.347 34.8433 26.2777 35.0753 26.139 35.262C26.0003 35.4487 25.803 35.59 25.547 35.686C25.291 35.782 24.987 35.83 24.635 35.83C24.3363 35.83 24.0777 35.806 23.859 35.758C23.6457 35.71 23.4563 35.6433 23.291 35.558V34.918C23.4617 35.0033 23.667 35.0833 23.907 35.158C24.1523 35.2273 24.4003 35.262 24.651 35.262C25.0083 35.262 25.267 35.206 25.427 35.094C25.587 34.9767 25.667 34.822 25.667 34.63C25.667 34.5233 25.6377 34.4273 25.579 34.342C25.5203 34.2567 25.4137 34.1713 25.259 34.086C25.1097 34.0007 24.8937 33.9047 24.611 33.798C24.3337 33.6913 24.0963 33.5847 23.899 33.478C23.7017 33.3713 23.5497 33.2433 23.443 33.094C23.3363 32.9447 23.283 32.7527 23.283 32.518C23.283 32.1553 23.4297 31.8753 23.723 31.678C24.0217 31.4807 24.411 31.382 24.891 31.382C25.1523 31.382 25.395 31.4087 25.619 31.462C25.8483 31.51 26.0617 31.5793 26.259 31.67L26.019 32.23C25.9017 32.1767 25.7763 32.1313 25.643 32.094C25.515 32.0513 25.3843 32.0193 25.251 31.998C25.1177 31.9713 24.9817 31.958 24.843 31.958C24.555 31.958 24.3337 32.006 24.179 32.102C24.0297 32.1927 23.955 32.318 23.955 32.478C23.955 32.5953 23.9897 32.6967 24.059 32.782C24.1283 32.862 24.243 32.942 24.403 33.022C24.5683 33.0967 24.787 33.1873 25.059 33.294C25.331 33.3953 25.563 33.4993 25.755 33.606C25.947 33.7127 26.0937 33.8433 26.195 33.998C26.2963 34.1473 26.347 34.3367 26.347 34.566Z" fill="white"/>
<circle cx="15" cy="12.5" r="12.5" fill="white"/>
<circle cx="15" cy="12.5" r="11.25" fill="black"/>
<path d="M12.1713 10.5256L20.0334 5.8215L18.0299 14.4314L10.1677 19.1355L12.1713 10.5256Z" fill="white"/>
<path d="M13.8571 11.748L16.9287 9.91022L16.146 13.2739L13.0744 15.1117L13.8571 11.748Z" fill="black"/>
</svg>
